<svg xmlns="http://www.w3.org/2000/svg" width="32" height="32" overflow="visible"><path fill="#f0dc8c" d="M30.941 12.483c-.402-1.92-1.347-3.642-1.459-3.841l-.004-.007a.32.32 0 0 0-.539.026l-.016.038c-.139.381-.648 1.713-1.412 2.825-.83 1.277-1.902 2.218-1.913 2.227-.085.074-.122.188-.097.297a9.23 9.23 0 0 1 .156 2.572 12.17 12.17 0 0 1-.292 1.749l-.255.799a.3.3 0 0 0 .063.295c.07.08.18.117.285.097 0 0 .357-.068.91-.222.586-.15 1.305-.421 2.02-.761l.846-.44a15.2 15.2 0 0 0 1.916-1.321.3.3 0 0 0 .151-.236c.001-.009.001-.019.001-.028v.001c.028-.508.081-2.303-.361-4.07zm-1.236 9.004c-.004.001-.396.14-.959.296-.672.169-1.449.305-2.125.372-.771.054-1.501.055-2.053.005l-.899-.119c-.108-.02-.218.021-.288.104-.008.01-.848 1.01-1.926 1.729-.52.364-1.063.631-1.546.865l-.78.306c-.102.038-.172.128-.189.233s.021.213.104.282l.738.57a11.34 11.34 0 0 0 1.854 1.098c.617.313 1.328.586 2.113.813l1.037.274a.31.31 0 0 0 .219-.033c.013-.008.025-.017.037-.026l.998-.797c.529-.469 1.298-1.204 1.949-2.037 1.301-1.59 2.068-3.454 2.1-3.533.046-.11.021-.238-.061-.325s-.21-.117-.323-.077zm-9.582 8.55l-.768-.522c-.347-.269-1.019-.813-1.616-1.434-.528-.576-.983-1.146-1.281-1.604l-.468-.777c-.056-.104-.166-.165-.283-.16-.003 0-.315.014-.792-.062-.529-.048-1.178-.185-1.745-.369a8.46 8.46 0 0 1-1.641-.678l-.523-.282-.158-.104c-.09-.07-.211-.086-.316-.038-.1.051-.172.148-.178.264a12.45 12.45 0 0 0 .307 3.082c.167.753.424 1.562.684 2.154l.436.978a.3.3 0 0 0 .189.158c.082.023 2.022.571 4.063.543 1.954.025 3.856-.496 4.067-.556.031-.01.054-.02.074-.031l.012-.006c.145-.085.195-.271.111-.416-.039-.07-.103-.117-.174-.14zM8.172 21.513l-.339-.526c-.128-.176-.25-.408-.402-.718a5.24 5.24 0 0 1-.391-.87c-.135-.312-.235-.606-.302-.895l-.19-.799-.103-.57-.018-.224c-.007-.104-.068-.198-.161-.248a.3.3 0 0 0-.295.005c-.083.048-1.291.956-2.25 2.177-.5.627-.97 1.331-1.255 1.879-.58 1.052-.566 1.076-.476 1.232l.004.013.535 1.094c.183.391.445.8.67 1.138a9.54 9.54 0 0 0 .88 1.228c.326.428.666.813 1.001 1.136l.964.911.721.599.286.202c.098.068.225.073.327.015l.008-.005c.103-.064.159-.184.141-.305-.001-.004-.059-.398-.066-1-.007-.573-.017-1.358.114-2.162.104-.743.266-1.45.456-1.998l.305-.84a.31.31 0 0 0-.062-.33c-.008-.01-.049-.056-.102-.139zm-4.463-6.619l.077-.044.172-.102c.556-.321 1.148-.601 1.67-.789l.844-.288c.104-.03.184-.113.211-.219a10.26 10.26 0 0 1 .992-2.396c.627-1.12 1.569-2.026 1.578-2.036.079-.075.111-.187.085-.293s-.108-.19-.213-.22c0 0-.357-.101-.945-.216-.39-.063-1.187-.174-2.147-.187-.8.015-1.639.086-2.249.193l-1.033.217c-.077.02-.144.068-.186.137-.011.018-.282.463-.564 1.168-.357.79-.677 1.77-.878 2.682-.209.866-.345 1.889-.372 2.807l-.01.513.01.767c.006.122.083.229.198.271.086.033.181.023.259-.021.025-.015.048-.032.069-.054a8.4 8.4 0 0 1 .745-.677c.505-.417 1.06-.851 1.687-1.213zM6.121 4.91l1.021.171c.626.11 1.399.332 2.077.595.774.275 1.487.671 1.843.883l.75.476c.083.059.191.072.286.035l.764-.297c.655-.214 1.221-.354 1.738-.426 1.158-.189 2.347-.061 2.574-.032a.33.33 0 0 0 .198-.038h.001c.274-.159.21-.282-.293-1.252-.316-.572-.75-1.225-1.193-1.798-.491-.601-1.069-1.213-1.55-1.642l-.815-.673c-.063-.047-.141-.069-.218-.06-.022.002-.541.062-1.269.286-.801.2-1.767.561-2.649.987-.737.347-1.504.803-2.434 1.458l-.984.788c-.095.076-.135.202-.102.319s.134.206.255.22zm13.65-.717c.461 1.386.542 2.734.549 2.883a.34.34 0 0 0 .041.14c.031.053.076.096.131.122.012.006 1.186.579 2.117 1.483.957.85 1.616 1.986 1.623 1.997.055.096.157.154.268.153.053-.001.104-.016.148-.041s.088-.068.115-.118.73-1.353 1.069-2.908c.204-.81.271-1.602.323-2.239.098-1.186-.002-1.249-.076-1.29-.063-.058-1.563-1.419-3.431-2.27a18.16 18.16 0 0 0-2.658-.986L18.761.848c-.12-.026-.244.022-.314.122s-.074.233-.009.338c.009.014.892 1.42 1.333 2.885zm.195 18.525a7.89 7.89 0 0 0 2.884-10.762 7.89 7.89 0 0 0-10.761-2.883 7.89 7.89 0 0 0-2.882 10.76 7.89 7.89 0 0 0 10.759 2.885z"/></svg>